<mxfile host="65bd71144e">
    <diagram id="MCEhs7IhSJn0IedYMR38" name="第 1 页">
        <mxGraphModel dx="460" dy="597" grid="1" gridSize="10" guides="1" tooltips="1" connect="1" arrows="1" fold="1" page="1" pageScale="1" pageWidth="1169" pageHeight="1654" math="0" shadow="0">
            <root>
                <mxCell id="dH-oKtCp4FLGUM0rbOoX-0"/>
                <mxCell id="dH-oKtCp4FLGUM0rbOoX-1" parent="dH-oKtCp4FLGUM0rbOoX-0"/>
            </root>
        </mxGraphModel>
    </diagram>
</mxfile>